

<svg xmlns="http://www.w3.org/2000/svg" width="512" height="512" xml:space="preserve"><g><path fill="#FF9B29" d="M250.223 129.884h11.812v243.677h-11.812z"/><path fill="#FFD162" d="M267.876 168.075h-23.494a8.333 8.333 0 0 1-8.333-8.333v-3.02a8.333 8.333 0 0 1 8.333-8.333h23.494a8.333 8.333 0 0 1 8.333 8.333v3.02a8.333 8.333 0 0 1-8.333 8.333z"/><path fill="#FFD162" d="M364.911 207.257c-29.035-29.007-67.667-44.982-108.782-44.982s-79.748 15.975-108.782 44.982c-29.057 29.03-45.06 67.851-45.06 109.02 0 1.305 1.058 2.522 2.362 2.522h302.957c1.305 0 2.362-1.218 2.362-2.522.002-41.17-16-79.99-45.057-109.02z"/><path fill="#FF9B29" d="M364.911 207.257c-29.035-29.007-67.667-44.982-108.782-44.982-9.821 0-19.498.922-28.939 2.705 30.082 5.681 57.744 20.199 79.843 42.277 29.057 29.03 45.059 67.851 45.059 109.02 0 1.305-1.058 2.522-2.362 2.522h57.878c1.305 0 2.362-1.218 2.362-2.522 0-41.17-16.002-79.99-45.059-109.02z"/><path fill="#FFD162" d="M410 335.161a2.362 2.362 0 0 0-2.362-2.362H105.362a2.362 2.362 0 0 0-2.362 2.362v14.275a2.362 2.362 0 0 0 2.362 2.362h302.275a2.362 2.362 0 0 0 2.362-2.362v-14.275z"/><path fill="#FF9B29" d="M410 335.161a2.362 2.362 0 0 0-2.362-2.362h-28.275a2.362 2.362 0 0 0-2.362 2.362v14.275a2.362 2.362 0 0 0 2.362 2.362h28.275a2.362 2.362 0 0 0 2.362-2.362v-14.275z"/><path fill="#FFD162" d="M407.544 351.967c-.091-.01-.182-.168-.273-.168H104.454c-.092 0-.185.158-.277.168-7.653.902-22.126 6.772-22.126 22.448 0 1.305 1.058 2.384 2.362 2.384h343.173c1.305 0 2.362-1.079 2.362-2.384.001-15.678-14.654-21.547-22.404-22.448z"/><path fill="#FF9B29" d="M407.544 351.967c-.091-.01-.182-.168-.273-.168h-55.516c.091 0 .182.158.273.168 7.749.901 22.404 6.77 22.404 22.448 0 1.305-1.058 2.384-2.362 2.384h55.516c1.305 0 2.362-1.079 2.362-2.384.001-15.678-14.654-21.547-22.404-22.448z"/><path fill="#FFF" d="M167.059 221.672a6.002 6.002 0 0 1-3.18-11.093 59.914 59.914 0 0 1 7.316-3.889 5.997 5.997 0 0 1 7.92 3.046 6 6 0 0 1-3.046 7.919 47.839 47.839 0 0 0-5.842 3.107 5.966 5.966 0 0 1-3.168.91zM120.88 310.304a6 6 0 0 1-5.95-6.83c.242-1.731 6.172-42.745 27.457-72.174a6 6 0 0 1 9.724 7.033c-19.507 26.971-25.241 66.41-25.296 66.806a6.003 6.003 0 0 1-5.935 5.165z"/><path fill="#FFD162" d="M256.709 118.869c-9.35 0-16.93 6.93-16.93 16.93h33.861c-.001-10-7.581-16.93-16.931-16.93z"/><path fill="#8A532D" d="M461 398.944v-5.861c0-8.933-7.326-16.283-16.259-16.283H67.259C58.326 376.8 51 384.15 51 393.083v5.861c0 2.454.647 4.771 1.625 6.855h406.75c.978-2.084 1.625-4.401 1.625-6.855z"/><path fill="#6E4224" d="M52.625 405.799c2.582 5.501 8.155 9 14.634 9h377.482c6.479 0 12.052-3.499 14.634-9H52.625z"/><path fill="none" stroke="#A6A6A6" stroke-width="7" stroke-linecap="round" stroke-linejoin="round" stroke-miterlimit="10" d="M89.667 210.466s10-44.382 58.667-48.191M79.667 186.37s5.744-27.905 35.206-33.905"/><path fill="#8A532D" d="M51 398.944v-5.861c0-8.933 7.326-16.283 16.259-16.283h377.482c8.933 0 16.259 7.35 16.259 16.283v5.861c0 2.454-.647 4.771-1.625 6.855H52.625c-.978-2.084-1.625-4.401-1.625-6.855z"/><path fill="none" stroke="#A6A6A6" stroke-width="7" stroke-linecap="round" stroke-linejoin="round" stroke-miterlimit="10" d="M422.333 210.466s-10-44.382-58.667-48.191M432.333 186.37s-5.744-27.905-35.206-33.905"/></g></svg>